<svg width="80" height="63" viewBox="0 0 80 63" fill="none" xmlns="http://www.w3.org/2000/svg">
<rect width="80" height="63" rx="10" fill="#C8A2C8"/>
<path d="M56.0002 47L48.5235 39.51L56.0002 47ZM52.6668 29.5C52.6668 33.2573 51.1743 36.8606 48.5175 39.5174C45.8607 42.1742 42.2574 43.6667 38.5002 43.6667C34.7429 43.6667 31.1396 42.1742 28.4828 39.5174C25.8261 36.8606 24.3335 33.2573 24.3335 29.5C24.3335 25.7428 25.8261 22.1395 28.4828 19.4827C31.1396 16.8259 34.7429 15.3334 38.5002 15.3334C42.2574 15.3334 45.8607 16.8259 48.5175 19.4827C51.1743 22.1395 52.6668 25.7428 52.6668 29.5V29.5Z" stroke="white" stroke-width="2" stroke-linecap="round"/>
</svg>
