<svg width="100" height="101" viewBox="0 0 100 101" fill="none" xmlns="http://www.w3.org/2000/svg">
<circle cx="50.2639" cy="50.5124" r="49.1223" stroke="#C8A2C8"/>
<g clip-path="url(#clip0)">
<path d="M54.2877 42.0184C54.2877 41.5442 54.0993 41.0893 53.764 40.754C53.4286 40.4186 52.9738 40.2302 52.4995 40.2302C52.0253 40.2302 51.5705 40.4186 51.2351 40.754C50.8998 41.0893 50.7114 41.5442 50.7114 42.0184V47.383H45.3468C44.8725 47.383 44.4177 47.5714 44.0823 47.9067C43.747 48.2421 43.5586 48.6969 43.5586 49.1712C43.5586 49.6454 43.747 50.1003 44.0823 50.4356C44.4177 50.771 44.8725 50.9594 45.3468 50.9594H50.7114V56.3239C50.7114 56.7982 50.8998 57.253 51.2351 57.5884C51.5705 57.9237 52.0253 58.1121 52.4995 58.1121C52.9738 58.1121 53.4286 57.9237 53.764 57.5884C54.0993 57.253 54.2877 56.7982 54.2877 56.3239V50.9594H59.6523C60.1266 50.9594 60.5814 50.771 60.9168 50.4356C61.2521 50.1003 61.4405 49.6454 61.4405 49.1712C61.4405 48.6969 61.2521 48.2421 60.9168 47.9067C60.5814 47.5714 60.1266 47.383 59.6523 47.383H54.2877V42.0184Z" fill="#C8A2C8"/>
<path d="M23.8883 25.9248C23.414 25.9248 22.9592 26.1132 22.6238 26.4486C22.2885 26.7839 22.1001 27.2387 22.1001 27.713C22.1001 28.1873 22.2885 28.6421 22.6238 28.9774C22.9592 29.3128 23.414 29.5012 23.8883 29.5012H27.8581L29.2922 35.2484L34.6496 63.8058C34.7263 64.2156 34.9438 64.5857 35.2644 64.8521C35.5851 65.1186 35.9887 65.2646 36.4056 65.265H39.982C38.085 65.265 36.2656 66.0186 34.9242 67.36C33.5828 68.7014 32.8292 70.5207 32.8292 72.4177C32.8292 74.3148 33.5828 76.1341 34.9242 77.4755C36.2656 78.8169 38.085 79.5705 39.982 79.5705C41.879 79.5705 43.6984 78.8169 45.0398 77.4755C46.3812 76.1341 47.1348 74.3148 47.1348 72.4177C47.1348 70.5207 46.3812 68.7014 45.0398 67.36C43.6984 66.0186 41.879 65.265 39.982 65.265H65.0167C63.1196 65.265 61.3003 66.0186 59.9589 67.36C58.6175 68.7014 57.8639 70.5207 57.8639 72.4177C57.8639 74.3148 58.6175 76.1341 59.9589 77.4755C61.3003 78.8169 63.1196 79.5705 65.0167 79.5705C66.9137 79.5705 68.733 78.8169 70.0744 77.4755C71.4158 76.1341 72.1694 74.3148 72.1694 72.4177C72.1694 70.5207 71.4158 68.7014 70.0744 67.36C68.733 66.0186 66.9137 65.265 65.0167 65.265H68.593C69.0099 65.2646 69.4136 65.1186 69.7342 64.8521C70.0549 64.5857 70.2723 64.2156 70.349 63.8058L75.7136 35.1948C75.7619 34.9367 75.7528 34.6711 75.6869 34.417C75.621 34.1628 75.5 33.9263 75.3323 33.7242C75.1647 33.5221 74.9546 33.3594 74.7171 33.2476C74.4795 33.1359 74.2202 33.0778 73.9576 33.0776H32.4358L30.9874 27.2803C30.8909 26.8932 30.6677 26.5496 30.3534 26.304C30.0391 26.0584 29.6517 25.9249 29.2529 25.9248H23.8883ZM37.8898 61.6886L33.194 36.6539H71.8046L67.1088 61.6886H37.8898ZM43.5584 72.4177C43.5584 73.3663 43.1816 74.2759 42.5109 74.9466C41.8402 75.6173 40.9305 75.9941 39.982 75.9941C39.0335 75.9941 38.1238 75.6173 37.4531 74.9466C36.7824 74.2759 36.4056 73.3663 36.4056 72.4177C36.4056 71.4692 36.7824 70.5596 37.4531 69.8889C38.1238 69.2182 39.0335 68.8414 39.982 68.8414C40.9305 68.8414 41.8402 69.2182 42.5109 69.8889C43.1816 70.5596 43.5584 71.4692 43.5584 72.4177ZM68.593 72.4177C68.593 73.3663 68.2162 74.2759 67.5455 74.9466C66.8748 75.6173 65.9652 75.9941 65.0167 75.9941C64.0681 75.9941 63.1585 75.6173 62.4878 74.9466C61.8171 74.2759 61.4403 73.3663 61.4403 72.4177C61.4403 71.4692 61.8171 70.5596 62.4878 69.8889C63.1585 69.2182 64.0681 68.8414 65.0167 68.8414C65.9652 68.8414 66.8748 69.2182 67.5455 69.8889C68.2162 70.5596 68.593 71.4692 68.593 72.4177Z" fill="#C8A2C8"/>
</g>
<defs>
<clipPath id="clip0">
<rect width="57.2221" height="57.2221" fill="white" transform="translate(22.1001 22.3484)"/>
</clipPath>
</defs>
</svg>
