<svg width="1119" height="1018" viewBox="0 0 1119 1018" fill="none" xmlns="http://www.w3.org/2000/svg">
<path d="M278.003 321.352C264.271 298.466 235.282 251.168 229.179 245.065C221.551 237.437 96.4408 101.647 70.5034 4C74.0635 96.0524 85.1504 288.396 101.018 321.352C120.853 362.547 139.161 409.844 142.213 422.05C144.654 431.815 137.127 481.045 133.058 504.44L187.985 481.554L149.841 547.16" stroke="white" stroke-width="20"/>
<path d="M366.495 272.528C302.414 220.654 170.286 114.463 154.419 104.698C128.99 76.2178 76.6063 16.5109 70.5034 5.52563" stroke="white" stroke-width="20"/>
<path d="M592.304 249.642C562.297 249.134 474.822 252.999 364.97 272.528" stroke="white" stroke-width="20"/>
<path d="M325.301 405.267C326.827 427.644 337.812 482.469 369.547 522.748" stroke="white" stroke-width="20" stroke-miterlimit="3.86874" stroke-linecap="round"/>
<path d="M255.117 376.278C260.711 403.741 279.223 464.465 308.517 487.656C319.706 496.302 342.694 515.425 345.135 522.748" stroke="white" stroke-width="20" stroke-miterlimit="3.86874" stroke-linecap="round"/>
<path d="M204.768 412.896C220.025 439.342 266.713 499.252 331.404 527.326" stroke="white" stroke-width="20" stroke-miterlimit="3.86874" stroke-linecap="round"/>
<path d="M306.991 615.817C334.454 586.829 406.774 546.244 476.347 615.817" stroke="white" stroke-width="20" stroke-miterlimit="3.86874" stroke-linecap="round"/>
<path d="M459.565 798.906C380.735 769.917 180.661 736.961 11 837.049" stroke="white" stroke-width="20" stroke-miterlimit="3.86874" stroke-linecap="round"/>
<path d="M479.399 840.1C404.13 812.128 205.073 795.549 11 953.004" stroke="white" stroke-width="20" stroke-miterlimit="3.86874" stroke-linecap="round"/>
<path d="M451.936 858.409C378.701 855.866 213.007 882.21 136.11 1007.93" stroke="white" stroke-width="20" stroke-miterlimit="3.86874" stroke-linecap="round"/>
<path d="M535.851 786.699L502.285 772.968C525.476 786.394 549.582 814.163 558.737 826.368H566.365V786.699H535.851Z" fill="white"/>
<path d="M442.781 879.769C469.736 904.689 530.968 935.001 560.262 856.883" stroke="white" stroke-width="20"/>
<path d="M840.997 321.352C854.729 298.466 883.718 251.168 889.821 245.065C897.449 237.437 1022.56 101.647 1048.5 4C1044.94 96.0524 1033.85 288.396 1017.98 321.352C998.147 362.547 979.839 409.844 976.787 422.05C974.346 431.815 981.873 481.045 985.942 504.44L931.015 481.554L969.159 547.16" stroke="white" stroke-width="20"/>
<path d="M752.505 272.528C816.586 220.654 948.714 114.463 964.581 104.698C990.01 76.2178 1042.39 16.5109 1048.5 5.52563" stroke="white" stroke-width="20"/>
<path d="M526.696 249.642C556.702 249.134 644.177 252.999 754.03 272.528" stroke="white" stroke-width="20"/>
<path d="M793.699 405.267C792.173 427.644 781.188 482.469 749.453 522.748" stroke="white" stroke-width="20" stroke-miterlimit="3.86874" stroke-linecap="round"/>
<path d="M863.883 376.278C858.289 403.741 839.777 464.465 810.483 487.656C799.294 496.302 776.306 515.425 773.865 522.748" stroke="white" stroke-width="20" stroke-miterlimit="3.86874" stroke-linecap="round"/>
<path d="M914.232 412.896C898.975 439.342 852.287 499.252 787.596 527.326" stroke="white" stroke-width="20" stroke-miterlimit="3.86874" stroke-linecap="round"/>
<path d="M812.009 615.817C784.546 586.829 712.226 546.244 642.653 615.817" stroke="white" stroke-width="20" stroke-miterlimit="3.86874" stroke-linecap="round"/>
<path d="M659.435 798.906C738.265 769.917 938.339 736.961 1108 837.049" stroke="white" stroke-width="20" stroke-miterlimit="3.86874" stroke-linecap="round"/>
<path d="M639.601 840.1C714.87 812.128 913.927 795.549 1108 953.004" stroke="white" stroke-width="20" stroke-miterlimit="3.86874" stroke-linecap="round"/>
<path d="M667.064 858.409C740.299 855.866 905.993 882.21 982.89 1007.93" stroke="white" stroke-width="20" stroke-miterlimit="3.86874" stroke-linecap="round"/>
<path d="M583.149 786.699L616.715 772.968C593.524 786.394 569.418 814.163 560.263 826.368H552.635V786.699H583.149Z" fill="white"/>
<path d="M676.219 879.769C649.264 904.689 588.032 935.001 558.738 856.883" stroke="white" stroke-width="20"/>
</svg>
