<svg width="4255" height="4255" viewBox="0 0 4255 4255" fill="none" xmlns="http://www.w3.org/2000/svg">
<circle cx="2127.5" cy="2127.5" r="2127.5" fill="#C8A2C9"/>
<path d="M1364.73 1624.49C1327.63 1562.64 1249.29 1434.83 1232.8 1418.33C1212.18 1397.72 874.089 1030.77 803.997 766.89C813.618 1015.65 843.578 1535.43 886.458 1624.49C940.058 1735.81 989.535 1863.62 997.781 1896.61C1004.38 1923 984.037 2056.03 973.043 2119.25L1121.47 2057.41L1018.4 2234.7" stroke="white" stroke-width="80"/>
<path d="M1603.87 1492.55C1430.7 1352.36 1073.65 1065.4 1030.77 1039.01C962.048 962.047 820.489 800.698 803.997 771.012" stroke="white" stroke-width="80"/>
<path d="M2214.09 1430.7C2133 1429.33 1896.61 1439.77 1599.75 1492.55" stroke="white" stroke-width="80"/>
<path d="M1492.55 1851.26C1496.67 1911.73 1526.36 2059.88 1612.12 2168.73" stroke="white" stroke-width="80" stroke-miterlimit="3.86874" stroke-linecap="round"/>
<path d="M1302.89 1772.92C1318 1847.13 1368.03 2011.23 1447.19 2073.9C1477.43 2097.26 1539.55 2148.94 1546.15 2168.73" stroke="white" stroke-width="80" stroke-miterlimit="3.86874" stroke-linecap="round"/>
<path d="M1166.83 1871.87C1208.06 1943.34 1334.22 2105.24 1509.04 2181.1" stroke="white" stroke-width="80" stroke-miterlimit="3.86874" stroke-linecap="round"/>
<path d="M1443.07 2420.24C1517.29 2341.9 1712.72 2232.23 1900.73 2420.24" stroke="white" stroke-width="80" stroke-miterlimit="3.86874" stroke-linecap="round"/>
<path d="M1855.38 2915.01C1642.35 2836.67 1101.68 2747.61 643.197 3018.08" stroke="white" stroke-width="80" stroke-miterlimit="3.86874" stroke-linecap="round"/>
<path d="M1908.98 3026.33C1705.57 2950.74 1167.65 2905.93 643.197 3331.43" stroke="white" stroke-width="80" stroke-miterlimit="3.86874" stroke-linecap="round"/>
<path d="M1834.76 3075.8C1636.86 3068.93 1189.09 3140.12 981.289 3479.86" stroke="white" stroke-width="80" stroke-miterlimit="3.86874" stroke-linecap="round"/>
<path d="M2061.53 2882.02L1970.82 2844.91C2033.49 2881.2 2098.64 2956.24 2123.38 2989.22H2143.99V2882.02H2061.53Z" fill="white"/>
<path d="M1810.02 3133.53C1882.86 3200.87 2048.34 3282.78 2127.5 3071.68" stroke="white" stroke-width="80"/>
<path d="M2886.14 1624.49C2923.25 1562.64 3001.59 1434.83 3018.08 1418.33C3038.69 1397.72 3376.79 1030.77 3446.88 766.89C3437.26 1015.65 3407.3 1535.43 3364.42 1624.49C3310.82 1735.81 3261.34 1863.62 3253.09 1896.61C3246.5 1923 3266.84 2056.03 3277.83 2119.25L3129.4 2057.41L3232.48 2234.7" stroke="white" stroke-width="80"/>
<path d="M2647 1492.55C2820.17 1352.36 3177.23 1065.4 3220.11 1039.01C3288.83 962.047 3430.39 800.698 3446.88 771.012" stroke="white" stroke-width="80"/>
<path d="M2036.79 1430.7C2117.88 1429.33 2354.27 1439.77 2651.13 1492.55" stroke="white" stroke-width="80"/>
<path d="M2758.33 1851.26C2754.2 1911.73 2724.52 2059.88 2638.76 2168.73" stroke="white" stroke-width="80" stroke-miterlimit="3.86874" stroke-linecap="round"/>
<path d="M2947.99 1772.92C2932.87 1847.13 2882.84 2011.23 2803.68 2073.9C2773.44 2097.26 2711.32 2148.94 2704.73 2168.73" stroke="white" stroke-width="80" stroke-miterlimit="3.86874" stroke-linecap="round"/>
<path d="M3084.05 1871.87C3042.82 1943.34 2916.65 2105.24 2741.83 2181.1" stroke="white" stroke-width="80" stroke-miterlimit="3.86874" stroke-linecap="round"/>
<path d="M2807.81 2420.24C2733.59 2341.9 2538.16 2232.23 2350.15 2420.24" stroke="white" stroke-width="80" stroke-miterlimit="3.86874" stroke-linecap="round"/>
<path d="M2395.5 2915.01C2608.52 2836.67 3149.19 2747.61 3607.68 3018.08" stroke="white" stroke-width="80" stroke-miterlimit="3.86874" stroke-linecap="round"/>
<path d="M2341.9 3026.33C2545.3 2950.74 3083.23 2905.93 3607.68 3331.43" stroke="white" stroke-width="80" stroke-miterlimit="3.86874" stroke-linecap="round"/>
<path d="M2416.11 3075.8C2614.02 3068.93 3061.79 3140.12 3269.59 3479.86" stroke="white" stroke-width="80" stroke-miterlimit="3.86874" stroke-linecap="round"/>
<path d="M2189.35 2882.02L2280.05 2844.91C2217.38 2881.2 2152.24 2956.24 2127.5 2989.22H2106.88V2882.02H2189.35Z" fill="white"/>
<path d="M2440.85 3133.53C2368.01 3200.87 2202.54 3282.78 2123.38 3071.68" stroke="white" stroke-width="80"/>
</svg>
